<svg width="25" height="24" viewBox="0 0 25 24" fill="none" xmlns="http://www.w3.org/2000/svg">
<path d="M21.0715 11V8H19.5715V11H16.5715V12.5H19.5715V15.5H21.0715V12.5H24.0715V11H21.0715Z" fill="white"/>
<path d="M7.57147 10V13H11.815C11.1955 14.746 9.52747 16 7.57147 16C5.09047 16 3.07147 13.981 3.07147 11.5C3.07147 9.019 5.09047 7 7.57147 7C8.64697 7 9.68197 7.3855 10.486 8.086L12.457 5.824C11.107 4.648 9.37297 4 7.57147 4C3.43597 4 0.0714722 7.3645 0.0714722 11.5C0.0714722 15.6355 3.43597 19 7.57147 19C11.707 19 15.0715 15.6355 15.0715 11.5V10H7.57147Z" fill="white"/>
</svg>
