<svg width="25" height="25" viewBox="0 0 25 25" fill="none" xmlns="http://www.w3.org/2000/svg">
<path d="M16.9504 12.9796C16.9504 15.1724 15.1726 16.9502 12.9798 16.9502C10.787 16.9502 9.00922 15.1724 9.00922 12.9796C9.00922 10.7868 10.787 9.00903 12.9798 9.00903C15.1726 9.00903 16.9504 10.7868 16.9504 12.9796Z" fill="white"/>
<path d="M19.6855 0.979614H6.27373C3.35438 0.979614 0.979614 3.35438 0.979614 6.27373V19.6855C0.979614 22.6048 3.35438 24.9796 6.27373 24.9796H19.6855C22.6048 24.9796 24.9796 22.6048 24.9796 19.6855V6.27373C24.9796 3.35438 22.6048 0.979614 19.6855 0.979614ZM12.9796 19.5973C9.3306 19.5973 6.36197 16.6286 6.36197 12.9796C6.36197 9.3306 9.3306 6.36197 12.9796 6.36197C16.6286 6.36197 19.5973 9.3306 19.5973 12.9796C19.5973 16.6286 16.6286 19.5973 12.9796 19.5973ZM20.5679 6.71491C19.8368 6.71491 19.2443 6.12242 19.2443 5.39138C19.2443 4.66034 19.8368 4.06785 20.5679 4.06785C21.2989 4.06785 21.8914 4.66034 21.8914 5.39138C21.8914 6.12242 21.2989 6.71491 20.5679 6.71491Z" fill="white"/>
</svg>
